<svg enable-background="new 0 0 32 32" height="512" viewBox="0 0 32 32" width="512" xmlns="http://www.w3.org/2000/svg"><g id="Layer_1"><g><path d="m16 31.1421c-.2559 0-.5117-.0977-.707-.293l-8.0356-8.0356c-4.8208-4.8208-4.8208-12.6641 0-17.4849 4.8203-4.8213 12.665-4.8213 17.4854 0 4.8208 4.8208 4.8208 12.6641 0 17.4849l-8.0356 8.0356c-.1955.1953-.4513.293-.7072.293zm0-27.4302c-2.6538 0-5.3081 1.0103-7.3286 3.0308-4.0405 4.041-4.0405 10.6157 0 14.6567l7.3286 7.3286 7.3286-7.3286c4.0405-4.041 4.0405-10.6157 0-14.6567-2.0205-2.0205-4.6748-3.0308-7.3286-3.0308z" fill="rgb(0,0,0)"/></g><g><path d="m16 19c-2.7568 0-5-2.2432-5-5s2.2432-5 5-5 5 2.2432 5 5-2.2432 5-5 5zm0-8c-1.6543 0-3 1.3457-3 3s1.3457 3 3 3 3-1.3457 3-3-1.3457-3-3-3z" fill="rgb(0,0,0)"/></g></g></svg>