<svg enable-background="new 0 0 32 32" height="512" viewBox="0 0 32 32" width="512" xmlns="http://www.w3.org/2000/svg"><g id="Layer_1"><path d="m27.3047 1h-22.6094c-2.0381 0-3.6953 1.6577-3.6953 3.6953v22.6094c0 2.0376 1.6572 3.6953 3.6953 3.6953h22.6094c2.0381 0 3.6953-1.6577 3.6953-3.6953v-22.6094c0-2.0376-1.6572-3.6953-3.6953-3.6953zm-22.6094 2h22.6094c.9346 0 1.6953.7607 1.6953 1.6953v3.3047h-26v-3.3047c0-.9346.7607-1.6953 1.6953-1.6953zm-1.6953 24.3047v-17.3047h4.8428v19h-3.1475c-.9346 0-1.6953-.7607-1.6953-1.6953zm24.3047 1.6953h-17.4619v-19h19.1572v17.3047c0 .9346-.7607 1.6953-1.6953 1.6953z" fill="#231f20"/></g></svg>