<?xml version="1.0" encoding="UTF-8"?>
<svg id="Camada_1" data-name="Camada 1" xmlns="http://www.w3.org/2000/svg" width="245.8259798156" height="40" viewBox="0 0 245.8259798156 40">
  <defs>
    <style>
      .cls-1 {
        fill: #fff;
        fill-rule: evenodd;
      }
    </style>
  </defs>
  <path class="cls-1" d="M74.7310983189,34.4786865922h-4.9761980463l-.9171607528,2.7852286671h-1.5620394072l3.6513075636-10.6992074497h2.8365415219l3.5149353751,10.6992074497h-1.6299943621l-.9173918921-2.7852286671h0ZM74.4421741906,33.5961967125l-2.0717015695-6.2846777973h-.2378423424l-2.0717015695,6.2846777973h4.3812454813ZM91.5802289234,33.8844274302c-.0568602684-.1354476348-.110715726-.2632676723-.1617975118-.3818421376-.0510817859-.1192678832-.1245840841-.2242051292-.220738034-.3145805988-.0956916713-.0903754696-.2235117056-.161104098-.3820732672-.2121858852s-.3739833917-.0760448325-.6453409329-.0760448325h-2.9209073673v4.3641412832h-1.5285242083v-10.6992074497h4.9755046284c.5327760926,0,1.0248716679.0596339416,1.4781358403.1782084068.4528018938.1185744652.8399602257.3085709768,1.1630929708.5686026988.3222081879.26072514.5746123063.6035047344.7560566589,1.0281076441.1807509346.4246029097.2718198199.9368076172.2718198199,1.5370764013,0,.792807828-.2267476559,1.4178085182-.6793184104,1.8763889061-.4534953118.4588115273-1.1885182941.6881017213-2.208073758.6881017213v.0674926781c.1356787706.0346708963.2882307104.0647190064.4585803764.0936114199.1696562481.0288924136.3342274316.0850592655.4920955753.1696562524.1585615616.0845969869.3118069192.2038648701.4585803764.3564168137.1474668751.1532453615.2720509592.3709785901.373521113.6538931037l1.2913752838,3.4816514035h-1.6648963968l-1.3070927564-3.3794878291h0ZM90.3570397339,31.9655088913c.3511006007,0,.6793184104-.03675115.9846534292-.1107157288.3060284367-.0735023001.5695272417-.1953127156.7902652757-.3642755501.2200446161-.1703496703.3938613717-.3938613816.5182143165-.6716908304.1238906662-.2771360309.1867605565-.6199156253.1867605565-1.0274142261,0-.7475045236-.1953127107-1.2513882161-.5864004108-1.5114199381-.3903942821-.2602628613-.9252506284-.3906254313-1.6052624568-.3906254313h-3.3958986342v4.0761417048h3.1076679239ZM105.9487725321,37.145340794c0,.2149595569.0614830545.3906254313.1867605565.5263042054.1243529448.1361410527.2942403322.2147284176.5089687444.2378423484l5.5875615018.4756846968v1.4610315688l-6.0632461866-.526766484c-.2147284121-.0228827915-.3846157996-.1021635743-.5089687444-.2378423484-.1245840841-.1356787741-.1867605565-.3171231312-.1867605565-.5431773749v-1.5796060341c-.9513693696-.3402370621-1.7178272971-.9173919153-2.3009917577-1.7330825349-.5838578784-.814534923-.8753245391-1.9184562603-.8753245391-3.3113017331,0-.9848845934.1472357358-1.8227645866.441476068-2.5134088403.2949337502-.6906442537.6991963904-1.2541618877,1.2141747567-1.6898594842.5156717842-.4356975965,1.1217190357-.7553632601,1.8174483366-.9592281301.6964227188-.2043271487,1.4406912733-.3057973051,2.2334990813-.3057973051s1.5345338302.1014701564,2.2251780664.3057973051c.6906442363.2038648701,1.289988448.5235305337,1.7998817496.9592281301.5096621623.4356975965.9118445489.9992152305,1.2053914632,1.6898594842.2949337502.6906442537.4417072073,1.5285242469.4417072073,2.5134088403,0,1.0417448633-.1493159895,1.9078238521-.4502593615,2.5984681058-.2993253969.6911065323-.7153761416,1.2428360616-1.2481522342,1.6563442845-.5318515353.4128148049-1.1714139857.7102910949-1.9189184904.8910420342-.7470422261.1814443571-1.5620394072.2829145136-2.4452226825.3060284444-.6002687689-.0342086176-1.1545408166-.1192678832-1.6642029789-.2549466572v.0339774783h0ZM108.0033697931,36.024315148c.5891740824,0,1.1355873938-.0707286284,1.6387776556-.2121858852.5038836797-.1414572568.9428172154-.3735211225,1.3163383285-.6959604578.3739833916-.3229016139.6656811916-.7481979415.8746311211-1.2742710076.2096433475-.526766484.3143494516-1.1688714829.3143494516-1.9274706933,0-.7581369318-.1047061041-1.4009353486-.3143494516-1.9277018326-.2089499296-.5260730661-.5006477295-.9513693937-.8746311211-1.2735775897-.373521113-.3224393353-.8124546487-.5549654796-1.3163383285-.6966538757-.5031902618-.1414572568-1.0496035732-.2114924673-1.6387776556-.2114924673-.5889429431,0-1.1374365082.0700352105-1.6470986705.2114924673-.5096621623.1416883961-.9506759517.3742145404-1.3248904827.6966538757-.3739833917.322208196-.6682237239.7442685733-.8838766932,1.2657188532-.2140349942.5202945834-.32151477,1.1656355326-.32151477,1.9355605691,0,.7585992104.1074797757,1.4007042093.32151477,1.9274706933.2156529694.5260730661.5098933016.9513693937.8838766932,1.2742710076.374214531.3224393353.8152283204.554503201,1.3248904827.6959604578s1.0581557274.2121858852,1.6470986705.2121858852h0ZM123.7143704715,26.5647078096v6.6914829802c0,.5089687573.0785873629.9428172392.2371489245,1.2992340529.1592549795.3571102316.374214531.6421049989.6460343509.8577579737.2713575413.2147284176.5910231968.3707474508.9592281059.4664391245.3682049091.0963850916.7613728629.1446932071,1.1801972792.1446932071.464358859,0,.883645554-.0483081155,1.257166667-.1446932071.373521113-.0956916737.6906442363-.2542532393.9506759517-.4749912789.2602628548-.2209691789.4620474659-.5064262249.6028113013-.8577579737.1421506711-.3511006096.2124170191-.7817131412.2124170191-1.2906818985v-6.6914829802h1.4781358403v6.7589756582c0,.7364098368-.110715726,1.3621039448-.3316848993,1.8770823241-.220738034.5149783793-.5320826747.9338028062-.9335716433,1.2567044202-.4024135259.3229016139-.8774047928.557508012-1.4270540544.7049748908-.5489558438.1474668788-1.157083349.2207380396-1.8260004908.2207380396-.622458142,0-1.2081651348-.0732711608-1.7573521179-.2207380396-.5489558437-.1474668788-1.0306501504-.3853092272-1.4432338056-.7135270452-.4135082124-.328217818-.7391834898-.7502781953-.9770258322-1.2652565745s-.3571102226-1.1353562832-.3571102226-1.8599780153v-6.7589756582h1.5292176262ZM142.1077427568,26.5647078096v10.6992074497h-1.4943155915v-10.6992074497h1.4943155915ZM154.2178242395,37.2639152593v-9.3745480729h-3.668411872v-1.3246593768h8.8477813654v1.3246593768h-3.6677184541v9.3745480729h-1.5116510392ZM167.84001904,37.2639152593v-10.6992074497h7.5570994995v1.3246593768h-6.0290375698v3.4476739251h5.6044346709v1.1381299549h-5.6044346709v3.464084816h6.2329024347v1.3246593768h-7.7609643644ZM186.9640226609,37.2639152593v-9.3745480729h-3.668411872v-1.3246593768h8.8484747833v1.3246593768h-3.6686430113v9.3745480729h-1.5114198999ZM201.7065496613,26.5647078096v6.6914829802c0,.5089687573.0792807808.9428172392.2371489245,1.2992340529.1592549795.3571102316.374214531.6421049989.6460343508.8577579737.2713575413.2147284176.5910231968.3707474508.9599215238.4664391245.3675114912.0963850916.7613728629.1446932071,1.1799661399.1446932071.4638965804,0,.8831832754-.0483081155,1.2567043884-.1446932071.373521113-.0956916737.6906442363-.2542532393.9506759517-.4749912789.2607251334-.2209691789.462047466-.5064262249.6028113013-.8577579737.1421506711-.3511006096.2128792977-.7817131412.2128792977-1.2906818985v-6.6914829802h1.4774424224v6.7589756582c0,.7364098368-.110715726,1.3621039448-.33145376,1.8770823241-.2200446161.5149783793-.5313892567.9338028062-.9335716433,1.2567044202-.4024135259.3229016139-.8774047928.557508012-1.4270540544.7049748908-.549186983.1474668788-1.157083349.2207380396-1.8260004908.2207380396-.622458142,0-1.2081651348-.0732711608-1.7573521179-.2207380396-.5489558437-.1474668788-1.0306501504-.3853092272-1.4434649449-.7135270452-.4132770731-.328217818-.7382589326-.7502781953-.9767946929-1.2652565745-.2378423424-.5149783793-.3564168047-1.1353562832-.3564168047-1.8599780153v-6.7589756582h1.5285242083ZM224.4649876768,33.8844274302c-.0563979898-.1354476348-.1102534474-.2632676723-.1613352332-.3818421376-.0510817859-.1192678832-.1243529448-.2242051292-.220738034-.3145805988s-.2235117056-.161104098-.3820732673-.2121858852-.3739833916-.0760448325-.6453409329-.0760448325h-2.9209073673v4.3641412832h-1.5292176262v-10.6992074497h4.9764291856c.5318515353,0,1.0246405286.0596339416,1.4774424224.1782084068.4532641725.1185744652.8404225044.3085709768,1.1635552494.5686026988.3224393272.26072514.5746123063.6035047344.7560566589,1.0281076441.180982074.4246029097.2720509592.9368076172.2720509592,1.5370764013,0,.792807828-.2267476559,1.4178085182-.6802429676,1.8763889061-.4528018938.4588115273-1.1885182941.6881017213-2.2073803401.6881017213v.0674926781c.1356787706.0346708963.2882307104.0647190064.4588115157.0936114199.1689628302.0288924136.3339962923.0850592655.491864436.1696562524.1585615616.0845969869.3113446406.2038648701.4588115157.3564168137.1472357358.1532453615.271126402.3709785901.3732899737.6538931037l1.2913752838,3.4816514035h-1.6646652575l-1.3077861743-3.3794878291h0ZM223.2422607659,31.9655088913c.35133174,0,.6795495497-.03675115.9848845685-.1107157288.3053350188-.0735023001.5686026845-.1953127156.7900341364-.3642755501.2202757554-.1703496703.3931679538-.3938613816.5182143165-.6716908304.1238906662-.2771360309.1860671386-.6199156253.1860671386-1.0274142261,0-.7475045236-.1950815714-1.2513882161-.5857069929-1.5114199381-.3903942821-.2602628613-.925712907-.3906254313-1.6052624568-.3906254313h-3.3958986342v4.0761417048h3.1076679239ZM242.33205577,34.4786865922h-4.9761980463l-.9171607528,2.7852286671h-1.5627328251l3.6520009815-10.6992074497h2.8365415219l3.5151665144,10.6992074497h-1.6302255014l-.9173918921-2.7852286671h0ZM242.0431316417,33.5961967125l-2.0717015695-6.2846777973h-.2378423424l-2.0717015695,6.2846777973h4.3812454813Z"/>
  <path class="cls-1" d="M18.1797854073,1.2452696533h5.9172983113l12.695735373,38.6383269158h-5.8874413108L18.1797854073,1.2452696533h0ZM55.6229333732,31.7267985277c-3.3713716772,5.130914436-8.0122270962,8.1567980414-14.1917282387,8.1567980414l-1.4751154142-4.4805705823.3957736228.0038163084c7.9460029222,0,11.7349236285-3.2975149699,14.7805621652-10.2431963074h-12.9402035949v-4.2928980032h18.0309344195v19.0128485844h-4.6002229597v-8.1567980414h0ZM29.1891614755,2.7114055556l1.6468492891,4.9991395509c2.7203543737-1.9236439361,6.2367457674-2.601375415,9.5158525785-2.601375415,6.4850302977,0,11.9569429779,2.7688440083,14.0449126123,9.1995481969h5.7646459781C58.6048171119,4.9773948064,49.1715763843.2029684752,40.3518633431.2029684752c-3.7765738264,0-7.7989628071.717690473-11.1627018676,2.5084370803h0ZM12.6995666442,20.5647698443c-2.1351122667,6.4365408956-4.2668572026,12.8733062799-6.3876021909,19.3188267248H.6694403419l6.5925603971-19.3188267248h5.4375659052Z"/>
  <path class="cls-1" d="M76.0616362175,18.4983459748h-5.8638657901l-1.0808888655,3.2823666862h-1.8411814493l4.3028315589-12.6089971449h3.3425408274l4.1429079465,12.6089971449h-1.9215802053l-1.0807640227-3.2823666862h0ZM75.721439618,17.457656461l-2.4414255778-7.4054247333h-.2802720609l-2.4418001062,7.4054247333h5.1634977449ZM91.8327760415,21.7807126609h-2.8019715519l-6.2443866104-11.3081352527v11.3081352527h-1.8012317569v-12.6089971449h2.8420460871l6.2043120752,11.167562269v-11.167562269h1.8012317569v12.6089971449h0ZM95.0549684205,21.7807126609v-12.6089971449h5.7039421777c.9473070814,0,1.8150893064.139823927,2.602098247.4200959949.787383469.2802720679,1.4611600002.6903806395,2.0213295935,1.2308250859.5602944361.540694132.997244197,1.200737973,1.3108492824,1.9813799512.3134802427.7806419781.4702827854,1.6713952987.4702827854,2.6722599619,0,1.0007398203-.1568025427,1.8914931409-.4702827854,2.6713860623-.3136050855.7807668209-.7505548463,1.4414348759-1.3108492824,1.9817544795-.5601695934.540069918-1.2339461245.9509275463-2.0213295935,1.2308250859-.7870089406.2802720679-1.6547911656.4204705233-2.602098247.4204705233h-5.7039421777ZM96.8562001774,20.2193038619h3.8028361898c.7202180486,0,1.3710235066-.1068654299,1.9514176318-.319847233.5802692824-.2137308598,1.0740225121-.5205944425,1.4810100036-.9208404335.4068626487-.400245991.7204677342-.8942489188.9405655709-1.481010041.2200978367-.5873853362.3302091764-1.2612867272.3302091764-2.0213296446,0-.760916817-.1101113397-1.4346933652-.3302091764-2.0214544874-.2200978367-.5873853362-.5337029221-1.08076405-.9405655709-1.481010041-.4069874915-.4006205194-.9007407212-.7073592592-1.4810100036-.9208404335-.5803941252-.2137308598-1.2311995832-.3202217614-1.9514176318-.3202217614h-3.8028361898v9.4865540753h0ZM109.3851727762,21.7807126609v-12.6089971449h8.9062845533v1.5610342706h-7.1050527964v4.0630086643h6.6045580561v1.3408115856h-6.6045580561v4.0827338254h7.3452503221v1.561408799h-9.1464820789ZM127.7577866333,17.7977282263c-.0665412064-.1602981449-.1298365004-.3099846524-.1900107246-.4505576362-.0597996958-.1396990842-.1468151196-.2635431338-.2600475291-.3697843498-.1136069378-.1068654299-.2632934416-.1903852577-.4505576248-.2505594835-.1865151265-.0597996973-.4401956733-.0898868102-.7605422694-.0898868102h-3.4421653729v5.1437727142h-1.8016062852v-12.6089971449h5.8644900041c.6270853282,0,1.2071049249.0701616491,1.7411823754.2098607333.5337029221.1405729837.9905026864.3637918958,1.3708986639.6706554784.3801462919.3071132682.6770224437.7106051718.8907532981,1.210975082.2133563261.5003699102.3202217533,1.1041096521.3202217533,1.8112192257,0,.9338240838-.267163568,1.6713952987-.8007416474,2.2114652167-.5337029221.5403196036-1.4007360904.810729091-2.6018485615.810729091v.0798993869c.1600484552.0400745362.3400717567.0767783171.5404444327.1101113425.1998733049.033582711.3935044703.1001239191.5803941252.2002478383.186764812.1002487619.3669129563.2399478461.5403195899.4200959949.1734066337.1805226772.3203465961.4370746146.4405702017.7707793975l1.5210845388,4.1029583577h-1.9616547405l-1.5411842278-3.9829844346h0ZM126.3171008505,15.5360762072c.4133544737,0,.8004919618-.043195606,1.1604137219-.1299613464.3606708169-.0866408976.6706554615-.2299604228.9307029905-.4303331039.2601723719-.2002478383.4636661176-.4635412865.6108557656-.7905045587.1465654341-.3269632721.2200978367-.7304551757.2200978367-1.210975082,0-.8805162117-.2303349453-1.474393373-.6907551505-1.7811321129-.4604202051-.307238111-1.090626603-.4604202167-1.8911185648-.4604202167h-4.0028343374v4.8033264206h3.6626377379ZM141.3474235657,12.7540794312c-.0134830212-.4136041698-.1500610321-.7636633584-.4106079324-1.0506769371-.2596730007-.2866390503-.5767736843-.5169740015-.9505529939-.6907551679-.3732799385-.173406638-.7704048497-.3001220719-1.1907505196-.3796469303-.4200959843-.080398758-.7973708921-.1203484514-1.1307011382-.1203484514-.4002459809,0-.7838878709.0399496934-1.1508008272.1203484514-.3670377991.0795248585-.6971221327.2031192225-.9908772147.3697843498-.2933805537.1670396556-.5269614115.3803959871-.7007425736.6408180511-.1734066337.2597978501-.2596730007.5637900485-.2596730007.9106033245v.1298365036c0,.0466912042.0067415106.0970028494.0197251606.1500610359.0665412064.453678706.3171006836.800491982.7506796891,1.0408143566.4334541627.2403223745.9639111724.4370746146,1.5909965005.5906312488s1.2977407896.3001220719,2.0114670132.4401956844c.7138510664.1401984554,1.3777650172.3468132761,1.9913673242.6203438332.6139768353.2735305572,1.1274552257.6436894353,1.5411842278,1.1108511628s.6338268388,1.1006140539.66029351,1.9011060359c.0134830212.6408180511-.1099864969,1.1808879691-.3701588688,1.6210836536-.2600475291.4406950556-.6203438176.7906294015-1.0807640227,1.0510514655-.4604202051.2597978501-.9905026864.4469371952-1.5909965005.5602944503-.6006186569.1134820979-1.2344454957.1701607254-1.9014805163.1701607254-1.1741464287,0-2.1112164015-.1468151233-2.811958975-.4401956845-.7003680452-.2937550895-1.2375665654-.6508054745-1.6108465039-1.0709014694-.3737793097-.4203456805-.6239642584-.8602916794-.7509293747-1.3210864245-.1267154306-.4604202167-.1965025496-.8570457668-.209860728-1.1907505497h1.6207090843c.0403242208.4936283994.1872641832.9006159012.4405702017,1.2208376626.2538053896.3203466042.5670359468.57727307.9406904136.7707793975.3736544669.193256642.7838878709.3302091847,1.2308250548.4102334144.4473117123.0798993869.8772702769.1198490803,1.290999279.1198490803.4002459809,0,.787383469-.0229710737,1.1606634075-.0700368063.3737793097-.0466912042.7074840842-.1369525428,1.0008646378-.270034959.2933805537-.1333321018.5272110971-.3202217614.7006177308-.5605441359.1734066336-.2399478461.2597978435-.5470611144.2597978435-.9204659051v-.1602981449c-.026591514-.3736544763-.1635440533-.6801435306-.4101085612-.9204659051-.2466893507-.2401975317-.5701570165-.4401956844-.9704029974-.6004938293-.4002459809-.1599236165-.8475576932-.2965016309-1.3411860801-.4101085716-.4937532297-.1132324123-1.0008646378-.230459794-1.5210845388-.350433717s-1.0308269072-.2565519375-1.5308222763-.4101085716c-.5004947403-.1535566341-.9509275223-.3503088742-1.3511735032-.5902567204-.4006205093-.2406969029-.7272092448-.5408189748-.9806401061-.9006159012-.2533060185-.360670826-.3938789987-.8076080212-.4203456699-1.3413109568-.0400745352-.7335762455.0569283117-1.350799009.2901346412-1.8511689192.2335808578-.5003699102.5736526146-.9073574119,1.0209643268-1.2208376626.4469371839-.3139796218.9873816166-.5404444464,1.6210836126-.680518059.6334523104-.1401984554,1.3239577753-.2102352617,2.0713915518-.2102352617.787383469,0,1.4576644021.0802739152,2.0110924848.2399478461.5538026111.1602981449,1.0177184143.3637918958,1.3911231956.6107309383.3736544669.2470638853.6706554615.5205944425.8907532981.8207165143s.38364189.5902567204.4905073172.8701542599c.1068654272.2802720679.1765277034.534077464.209860728.760916817.0335827102.226839353.0498122727.3867629695.0498122727.4801453779h-1.6207090843ZM144.5496410986,15.4762765098c0-1.161162808.1770270745-2.1481699212.530207324-2.9623946104.3538044635-.8136004752.834074672-1.4775144428,1.4413099967-1.9913673745.6072353247-.5134784033,1.3174659502-.8903787922,2.1314409332-1.1307011668.8136004546-.2401975317,1.6877496618-.3601714548,2.6219482505-.3601714548.933948903,0,1.8079732675.1199739231,2.6215737221.3601714548.8143495114.2403223745,1.520959696.6172227634,2.1215783529,1.1307011668.6004938142.5138529317,1.0740225121,1.1777668993,1.4208357794,1.9913673745.3471877957.8142246891.5205944293,1.8012318024.5205944293,2.9623946104,0,1.1072307219-.1734066337,2.064899779-.5205944293,2.8717587434-.3468132673.8072334928-.8203419652,1.4777641284-1.4208357794,2.011467064-.6006186569.5335780928-1.3072288416.9272074159-2.1215783529,1.1808879691-.8136004546.2534308677-1.6876248191.3800214587-2.6215737221.3800214587-.9341985886,0-1.8083477958-.126590591-2.6219482505-.3800214587-.813974983-.2536805533-1.5242056085-.6473098763-2.1314409332-1.1808879691-.6072353247-.5337029356-1.0875055333-1.2042335712-1.4413099967-2.011467064-.3531802495-.8068589644-.530207324-1.7645280215-.530207324-2.8717587434h0ZM151.2745476031,20.3195526238c.6936265346,0,1.3373159537-.0935072512,1.9311931-.2803969107.5937523035-.1863902884,1.1108511348-.4766497797,1.5514213365-.8701542599.439821145-.3938790086.7835133425-.8974948314,1.0304523788-1.5114716822.2466893507-.6136023225.3701588688-1.3408115856.3701588688-2.1812532611,0-.8939992332-.1234695181-1.6516701376-.3701588688-2.2720139708-.2469390363-.6203438332-.5906312338-1.120339215-1.0304523788-1.5008600449-.4405702017-.3803959871-.9576690329-.6539265443-1.5514213365-.8205916715-.5938771463-.1666651273-1.2375665654-.2498104267-1.9311931-.2498104267-.694001063,0-1.3408115518.0831452994-1.9414302087.2498104267-.6004938142.1666651273-1.1207137151.4401956844-1.5612839168.8205916715-.4403205161.3805208299-.7871337834.8772702991-1.0404398019,1.4909974644-.2538053896.6139768508-.3803959775,1.3745191395-.3803959775,2.2818765514,0,.853924697.1265905878,1.5842550299.3803959775,2.1916152128.2533060185.6068608117.6001192858,1.1072307219,1.0404398019,1.5011097305.4405702017.3935044802.9607901026.6837639716,1.5612839168.8701542599.6006186569.1868896596,1.2474291457.2803969107,1.9414302087.2803969107h0ZM170.9880978547,21.7807126609h-2.8020963947l-6.2442617676-11.3081352527v11.3081352527h-1.8013565997v-12.6089971449h2.8420460871l6.2043120752,11.167562269v-11.167562269h1.8013565996v12.6089971449h0ZM189.821131917,19.1188146508c-.6139768353.9338240838-1.3674030658,1.6345666751-2.261651962,2.1013538742-.8939992106.4667871991-1.8013565997.7002432201-2.7218224815.7002432201-.9338240603,0-1.8075987391-.126590591-2.6218234077-.3800214587-.8136004546-.2536805533-1.5242056085-.6473098763-2.1314409332-1.1808879691-.6073601675-.5337029356-1.0875055333-1.2042335712-1.4406857828-2.011467064-.3539293063-.8068589644-.530831538-1.7645280215-.530831538-2.8717587434,0-1.161162808.1769022317-2.1584070302.530831538-2.9921071949.3531802495-.8341995359.8333256153-1.5210845772,1.4406857828-2.0617787092.6072353247-.5404444464,1.3178404786-.9406904374,2.1314409332-1.200737973.8142246686-.2600475356,1.6879993474-.3900088821,2.6218234077-.3900088821.7605422694,0,1.5044804479.1033698317,2.2316896927.3099846524.7268347164.2067396635,1.3843816851.5068617353,1.9711427924.900740744.5873853213.3935044803,1.081138551.8772702991,1.481384532,1.4509229281s.66029351,1.2208376626.7806419584,1.9413054149h-1.8816305128c-.3337047745-1.0272064922-.9106033015-1.784627711-1.7311949524-2.2715145997-.8207164936-.487261417-1.7712694875-.7304551757-2.8520335102-.7304551757-.6938762202,0-1.3408115518.0935072512-1.9413053659.2798975396-.6002441286.1868896596-1.1208385579.4837658188-1.5614087596.8907533206-.4398211449.4069875018-.7870089406.9272074159-1.0404398019,1.561408799-.2536805469.6334523264-.3803959775,1.4042317239-.3803959775,2.3115891359,0,.853924697.1267154306,1.5842550299.3803959775,2.1916152128.2534308613.6068608117.6006186569,1.1072307219,1.0404398019,1.5011097305.4405702017.3935044802.961164631.6837639716,1.5614087596.8701542599.6004938141.1868896596,1.2474291457.2803969107,1.9413053659.2803969107.4268374949,0,.8539246754-.0300871129,1.2811366987-.0902613386.4267126521-.0597996974.8471831648-.2031192225,1.2609121669-.4299585755.4133544737-.226839353.8136004546-.5637900485,1.2007379427-1.0107272437.3867629597-.4469371952.7473089338-1.0510514655,1.0807640227-1.8112192257h-4.2233067025v-1.4009858113h5.8844648503v6.2043122319h-1.5012345354v-2.6618980101h0ZM200.9890684322,17.7977282263c-.0665412064-.1602981449-.1299613431-.3099846524-.1901355673-.4505576362-.0597996958-.1396990842-.1468151196-.2635431338-.2600475291-.3697843498-.1136069378-.1068654299-.2632934416-.1903852577-.450432782-.2505594835-.1865151265-.0597996973-.4403205161-.0898868102-.7605422694-.0898868102h-3.4422902157v5.1437727142h-1.8016062852v-12.6089971449h5.8646148469c.6270853282,0,1.2071049249.0701616491,1.7410575327.2098607333.5337029221.1405729837.9905026864.3637918958,1.3710235066.6706554784.3800214491.3071132682.6768976009.7106051718.8907532981,1.210975082.2133563261.5003699102.3202217533,1.1041096521.3202217533,1.8112192257,0,.9338240838-.267163568,1.6713952987-.8008664902,2.2114652167-.5337029221.5403196036-1.4006112476.810729091-2.6017237187.810729091v.0798993869c.1599236125.0400745362.3400717567.0767783171.5403195899.1101113425.1999981477.033582711.3935044703.1001239191.5803941252.2002478383.1868896548.1002487619.3670377991.2399478461.5404444327.4200959949.1734066337.1805226772.3202217533.4370746146.4405702017.7707793975l1.520959696,4.1029583577h-1.9615298977l-1.5411842278-3.9829844346h0ZM199.5483826494,15.5360762072c.4133544737,0,.8004919618-.043195606,1.1604137219-.1299613464.3605459741-.0866408976.6705306187-.2299604228.9310775189-.4303331039.2596730007-.2002478383.4631667465-.4635412865.6103563945-.7905045587.1465654341-.3269632721.2202226795-.7304551757.2202226795-1.210975082,0-.8805162117-.2304597881-1.474393373-.6908799932-1.7811321129-.4604202051-.307238111-1.090626603-.4604202167-1.8911185648-.4604202167h-4.0028343374v4.8033264206h3.6627625807ZM206.6129863822,21.7807126609v-12.6089971449h8.9061597105v1.5610342706h-7.1049279536v4.0630086643h6.6045580561v1.3408115856h-6.6045580561v4.0827338254h7.3452503221v1.561408799h-9.1464820789ZM223.9451604375,20.3195526238c.9204658818,0,1.7676490467-.1667899701,2.5416743373-.500494753.7739004478-.3337047829,1.3745191047-.9137243943,1.8012317569-1.7410575766l1.9414302087.0198500039c-.1868896548.6539265443-.50361581,1.2208376626-.950552994,1.7014824116-.4469371839.4801453779-.9607901026.8768957707-1.5415587561,1.1907505497-.5800195968.3136050934-1.2007379427.5471859572-1.8610314527.7003680629-.6606680383.1535566341-1.3041077718.2299604228-1.9311931.2299604228-.9341985886,0-1.8110943372-.126590591-2.6321853591-.3800214587-.8205916508-.2536805533-1.5340681888-.6473098763-2.1413035136-1.1808879691-.6072353247-.5337029356-1.0840099352-1.2042335712-1.4311977308-2.011467064-.3466884245-.8068589644-.5200950582-1.7645280215-.5200950582-2.8717587434,0-1.161162808.1734066336-2.1481699212.5200950582-2.9623946104.3471877957-.8136004752.8239624061-1.4775144428,1.4311977308-1.9913673745.6072353247-.5134784033,1.3207118628-.8903787922,2.1413035136-1.1307011668.821091022-.2401975317,1.6979867705-.3601714548,2.6321853591-.3601714548.760167741,0,1.5012345354.0933824084,2.2213277412.2798975396.720592577.1872641879,1.3777650172.4635412865,1.9711427924.8309536233.5942516747.3669129656,1.0911259741.8238375841,1.4913719551,1.3705241701.4002459809.5471859572.6539265277,1.1876294799.7604174266,1.9215802538h-1.8614059811c-.3468132673-1.0272064922-.9272073925-1.7512946856-1.7410575327-2.1713906805-.813974983-.4203456805-1.7614069072-.6302064138-2.8417964015-.6302064138-.6938762202,0-1.3411860801.0831452994-1.9416798943.2498104267-.6002441286.1666651273-1.1208385579.4401956844-1.5606597028.8205916715-.4405702017.3805208299-.787383469.8772702991-1.0411888586,1.4909974644-.2533060185.6139768508-.3800214491,1.3745191395-.3800214491,2.2818765514,0,.853924697.1267154306,1.5842550299.3800214491,2.1916152128.2538053896.6068608117.6006186569,1.1072307219,1.0411888586,1.5011097305.439821145.3935044802.9604155743.6837639716,1.5606597028.8701542599.6004938141.1868896596,1.2478036741.2803969107,1.9416798943.2803969107h0ZM231.4701843754,15.4762765098c0-1.161162808.1770270745-2.1481699212.5304570096-2.9623946104.3539293063-.8136004752.8338249864-1.4775144428,1.4410603112-1.9913673745.6072353247-.5134784033,1.3174659502-.8903787922,2.1314409332-1.1307011668.813974983-.2401975317,1.6879993474-.3601714548,2.6219482505-.3601714548s1.8079732675.1199739231,2.6219482505.3601714548c.813974983.2403223745,1.520959696.6172227634,2.1215783529,1.1307011668.6004938141.5138529317,1.0740225121,1.1777668993,1.4208357794,1.9913673745.3468132673.8142246891.5202199009,1.8012318024.5202199009,2.9623946104,0,1.1072307219-.1734066336,2.064899779-.5202199009,2.8717587434-.3468132673.8072334928-.8203419652,1.4777641284-1.4208357794,2.011467064-.6006186569.5335780928-1.3076033699.9272074159-2.1215783529,1.1808879691-.813974983.2534308677-1.6879993474.3800214587-2.6219482505.3800214587s-1.8079732675-.126590591-2.6219482505-.3800214587c-.813974983-.2536805533-1.5242056085-.6473098763-2.1314409332-1.1808879691-.6072353247-.5337029356-1.0871310049-1.2042335712-1.4410603112-2.011467064-.3534299351-.8068589644-.5304570096-1.7645280215-.5304570096-2.8717587434h0ZM238.1950908799,20.3195526238c.694001063,0,1.3373159537-.0935072512,1.9314427856-.2803969107.593502618-.1863902884,1.1108511348-.4766497797,1.5511716509-.8701542599.439821145-.3938790086.7835133425-.8974948314,1.0304523788-1.5114716822.2466893507-.6136023225.3701588688-1.3408115856.3701588688-2.1812532611,0-.8939992332-.1234695181-1.6516701376-.3701588688-2.2720139708-.2469390362-.6203438332-.5906312338-1.120339215-1.0304523788-1.5008600449-.4403205161-.3803959871-.9576690329-.6539265443-1.5511716509-.8205916715-.5941268319-.1666651273-1.2374417226-.2498104267-1.9314427856-.2498104267s-1.3408115518.0831452994-1.9414302087.2498104267c-.6004938141.1666651273-1.1207137151.4401956844-1.5609093884.8205916715-.4406950445.3805208299-.7875083118.8772702991-1.0408143303,1.4909974644-.2538053896.6139768508-.3803959775,1.3745191395-.3803959775,2.2818765514,0,.853924697.1265905878,1.5842550299.3803959775,2.1916152128.2533060185.6068608117.6001192858,1.1072307219,1.0408143303,1.5011097305.4401956733.3935044802.9604155743.6837639716,1.5609093884.8701542599.6006186569.1868896596,1.2474291457.2803969107,1.9414302087.2803969107Z"/>
</svg>